<svg width="18" height="18" viewBox="0 0 18 18" fill="none" xmlns="http://www.w3.org/2000/svg">
<path d="M0.666748 8.99992C0.666748 5.85742 0.666748 4.28575 1.64341 3.30992C2.62008 2.33409 4.19091 2.33325 7.33341 2.33325H10.6667C13.8092 2.33325 15.3809 2.33325 16.3567 3.30992C17.3326 4.28659 17.3334 5.85742 17.3334 8.99992V10.6666C17.3334 13.8091 17.3334 15.3808 16.3567 16.3566C15.3801 17.3324 13.8092 17.3333 10.6667 17.3333H7.33341C4.19091 17.3333 2.61925 17.3333 1.64341 16.3566C0.667581 15.3799 0.666748 13.8091 0.666748 10.6666V8.99992Z" stroke="#888888"/>
<path d="M4.8335 2.33325V1.08325M13.1668 2.33325V1.08325M1.0835 6.49992H16.9168" stroke="#888888" stroke-linecap="round"/>
<path d="M13.5 13.1667C13.5 13.2551 13.4649 13.3399 13.4024 13.4024C13.3399 13.4649 13.2551 13.5 13.1667 13.5C13.0783 13.5 12.9935 13.4649 12.931 13.4024C12.8685 13.3399 12.8333 13.2551 12.8333 13.1667C12.8333 13.0783 12.8685 12.9935 12.931 12.931C12.9935 12.8685 13.0783 12.8333 13.1667 12.8333C13.2551 12.8333 13.3399 12.8685 13.4024 12.931C13.4649 12.9935 13.5 13.0783 13.5 13.1667ZM13.5 9.83333C13.5 9.92174 13.4649 10.0065 13.4024 10.069C13.3399 10.1315 13.2551 10.1667 13.1667 10.1667C13.0783 10.1667 12.9935 10.1315 12.931 10.069C12.8685 10.0065 12.8333 9.92174 12.8333 9.83333C12.8333 9.74493 12.8685 9.66014 12.931 9.59763C12.9935 9.53512 13.0783 9.5 13.1667 9.5C13.2551 9.5 13.3399 9.53512 13.4024 9.59763C13.4649 9.66014 13.5 9.74493 13.5 9.83333ZM9.33333 13.1667C9.33333 13.2551 9.29821 13.3399 9.2357 13.4024C9.17319 13.4649 9.08841 13.5 9 13.5C8.91159 13.5 8.82681 13.4649 8.7643 13.4024C8.70179 13.3399 8.66667 13.2551 8.66667 13.1667C8.66667 13.0783 8.70179 12.9935 8.7643 12.931C8.82681 12.8685 8.91159 12.8333 9 12.8333C9.08841 12.8333 9.17319 12.8685 9.2357 12.931C9.29821 12.9935 9.33333 13.0783 9.33333 13.1667ZM9.33333 9.83333C9.33333 9.92174 9.29821 10.0065 9.2357 10.069C9.17319 10.1315 9.0884 10.1667 9 10.1667C8.91159 10.1667 8.82681 10.1315 8.7643 10.069C8.70179 10.0065 8.66667 9.92174 8.66667 9.83333C8.66667 9.74493 8.70179 9.66014 8.7643 9.59763C8.82681 9.53512 8.91159 9.5 9 9.5C9.0884 9.5 9.17319 9.53512 9.2357 9.59763C9.29821 9.66014 9.33333 9.74493 9.33333 9.83333ZM5.16667 13.1667C5.16667 13.2551 5.13155 13.3399 5.06904 13.4024C5.00652 13.4649 4.92174 13.5 4.83333 13.5C4.74493 13.5 4.66014 13.4649 4.59763 13.4024C4.53512 13.3399 4.5 13.2551 4.5 13.1667C4.5 13.0783 4.53512 12.9935 4.59763 12.931C4.66014 12.8685 4.74493 12.8333 4.83333 12.8333C4.92174 12.8333 5.00652 12.8685 5.06904 12.931C5.13155 12.9935 5.16667 13.0783 5.16667 13.1667ZM5.16667 9.83333C5.16667 9.92174 5.13155 10.0065 5.06904 10.069C5.00652 10.1315 4.92174 10.1667 4.83333 10.1667C4.74493 10.1667 4.66014 10.1315 4.59763 10.069C4.53512 10.0065 4.5 9.92174 4.5 9.83333C4.5 9.74493 4.53512 9.66014 4.59763 9.59763C4.66014 9.53512 4.74493 9.5 4.83333 9.5C4.92174 9.5 5.00652 9.53512 5.06904 9.59763C5.13155 9.66014 5.16667 9.74493 5.16667 9.83333Z" fill="white" stroke="#888888"/>
</svg>
