<svg width="60" height="60" viewBox="0 0 60 60" fill="none" xmlns="http://www.w3.org/2000/svg">
<rect width="60" height="60" fill="#F0F0F0"/>
<path d="M24.9805 41.877C24.9805 43.498 25.5469 45.1094 27.0312 45.832L26.1914 46.9453C25.2539 46.4912 24.6387 45.666 24.2871 44.6504C23.8965 45.749 23.2373 46.6328 22.2363 47.1211L21.377 45.9785C22.959 45.2656 23.5742 43.5566 23.5742 41.877V40.6367H24.9805V41.877ZM28.7012 39.9727V43.3711H29.9707V44.5527H28.7012V48.9375H27.2949V39.9727H28.7012ZM33.8086 41.7012C33.8086 42.7266 34.3848 43.8203 35.8984 44.2695L35.1758 45.3633C34.1943 45.0605 33.5205 44.4502 33.125 43.6836C32.71 44.5283 32.0068 45.1973 30.9668 45.5293L30.2441 44.4258C31.7773 43.957 32.3828 42.7949 32.3828 41.7012H30.6152V40.5781H35.5273V41.7012H33.8086ZM37.7637 39.9824V46.4277H36.3574V39.9824H37.7637ZM37.9883 47.668V48.791H31.6895V45.8516H33.1152V47.668H37.9883Z" fill="#DDDDDD"/>
<path d="M27.828 12L25.828 14H22V26H38V14H34.172L32.172 12H27.828ZM27 10H33L35 12H39C39.2652 12 39.5196 12.1054 39.7071 12.2929C39.8946 12.4804 40 12.7348 40 13V27C40 27.2652 39.8946 27.5196 39.7071 27.7071C39.5196 27.8946 39.2652 28 39 28H21C20.7348 28 20.4804 27.8946 20.2929 27.7071C20.1054 27.5196 20 27.2652 20 27V13C20 12.7348 20.1054 12.4804 20.2929 12.2929C20.4804 12.1054 20.7348 12 21 12H25L27 10ZM30 25C28.5413 25 27.1424 24.4205 26.1109 23.3891C25.0795 22.3576 24.5 20.9587 24.5 19.5C24.5 18.0413 25.0795 16.6424 26.1109 15.6109C27.1424 14.5795 28.5413 14 30 14C31.4587 14 32.8576 14.5795 33.8891 15.6109C34.9205 16.6424 35.5 18.0413 35.5 19.5C35.5 20.9587 34.9205 22.3576 33.8891 23.3891C32.8576 24.4205 31.4587 25 30 25ZM30 23C30.9283 23 31.8185 22.6313 32.4749 21.9749C33.1313 21.3185 33.5 20.4283 33.5 19.5C33.5 18.5717 33.1313 17.6815 32.4749 17.0251C31.8185 16.3687 30.9283 16 30 16C29.0717 16 28.1815 16.3687 27.5251 17.0251C26.8687 17.6815 26.5 18.5717 26.5 19.5C26.5 20.4283 26.8687 21.3185 27.5251 21.9749C28.1815 22.6313 29.0717 23 30 23Z" fill="#DDDDDD"/>
</svg>
