<svg width="9" height="15" viewBox="0 0 9 15" fill="none" xmlns="http://www.w3.org/2000/svg">
<path d="M8.015 1.61162C8.0789 1.544 8.12886 1.46445 8.16202 1.37752C8.19518 1.29058 8.2109 1.19797 8.20827 1.10496C8.20564 1.01196 8.18471 0.920381 8.14669 0.835462C8.10867 0.750543 8.05429 0.673945 7.98666 0.61004C7.91904 0.546136 7.83949 0.496177 7.75256 0.463016C7.66562 0.429855 7.57301 0.414141 7.48 0.416772C7.387 0.419403 7.29542 0.440327 7.2105 0.478349C7.12558 0.516372 7.04899 0.570748 6.98508 0.638373L0.964248 7.01337C0.839909 7.14489 0.77063 7.31901 0.77063 7.5C0.77063 7.68099 0.839909 7.85511 0.964248 7.98662L6.98508 14.3623C7.04856 14.4314 7.12515 14.4872 7.21038 14.5265C7.29561 14.5658 7.38779 14.5877 7.48157 14.591C7.57535 14.5944 7.66886 14.579 7.75666 14.5459C7.84446 14.5128 7.92481 14.4626 7.99304 14.3981C8.06126 14.3337 8.11601 14.2564 8.15409 14.1706C8.19218 14.0849 8.21284 13.9924 8.21489 13.8986C8.21693 13.8047 8.20031 13.7115 8.166 13.6241C8.13168 13.5368 8.08036 13.4571 8.015 13.3898L2.45316 7.5L8.015 1.61162Z" fill="#555555"/>
</svg>
