<svg width="28" height="28" viewBox="0 0 28 28" fill="none" xmlns="http://www.w3.org/2000/svg">
<path d="M14.2499 19.1503C7.19387 19.1503 5.94437 12.1188 5.72387 6.54016C5.66139 4.98931 5.63077 4.21266 6.21387 3.49603C6.79574 2.77818 7.49277 2.66058 8.88804 2.42538C10.6604 2.13505 12.4539 1.99287 14.2499 2.00031C16.4353 2.00031 18.2348 2.19263 19.6117 2.42538C21.007 2.66058 21.704 2.77818 22.2871 3.49603C22.8702 4.21388 22.8383 4.98931 22.7771 6.54016C22.5566 12.1188 21.3071 19.1503 14.2511 19.1503H14.2499Z" stroke="black" stroke-width="2.5"/>
<path d="M14.25 19.1503V22.8253" stroke="black" stroke-width="2.5" stroke-linecap="round"/>
<path d="M18.5374 26.5003H9.9624L10.3789 24.4227C10.4344 24.1451 10.5843 23.8953 10.8032 23.7157C11.022 23.5362 11.2963 23.438 11.5794 23.4378H16.9204C17.2035 23.438 17.4778 23.5362 17.6966 23.7157C17.9155 23.8953 18.0654 24.1451 18.1209 24.4227L18.5374 26.5003Z" stroke="black" stroke-width="2.5" stroke-linecap="round" stroke-linejoin="round"/>
<path d="M22.825 5.67531L23.9875 6.06241C25.2003 6.46666 25.8066 6.66878 26.1533 7.15021C26.5 7.63163 26.5 8.27231 26.5 9.54876V9.63818C26.5 10.6917 26.5 11.2197 26.2464 11.6509C25.9928 12.0821 25.531 12.3381 24.6098 12.8514L20.9875 14.8628M5.675 5.67531L4.51248 6.06241C3.29973 6.46666 2.69335 6.66878 2.34667 7.15021C2 7.63163 2 8.27231 2 9.54876V9.63818C2 10.6917 2 11.2197 2.25358 11.6509C2.50715 12.0821 2.96898 12.3381 3.89017 12.8514L7.5125 14.8628M13.2039 6.92848C13.6694 6.09181 13.9021 5.67531 14.25 5.67531C14.5979 5.67531 14.8306 6.09181 15.2961 6.92848L15.4162 7.14408C15.5485 7.38173 15.6146 7.49933 15.7175 7.57773C15.8217 7.65613 15.9503 7.68553 16.2075 7.74311L16.4403 7.79701C17.3443 8.00158 17.7964 8.10326 17.9042 8.44871C18.012 8.79416 17.7033 9.15553 17.0871 9.87583L16.9279 10.062C16.7527 10.2666 16.6645 10.3683 16.6253 10.4957C16.5861 10.6231 16.5995 10.7591 16.6253 11.0322L16.6498 11.2809C16.7429 12.2425 16.7894 12.724 16.5089 12.9371C16.2271 13.1503 15.8033 12.9555 14.9568 12.5659L14.7388 12.4655C14.4974 12.3552 14.3774 12.3001 14.25 12.3001C14.1226 12.3001 14.0025 12.3552 13.7612 12.4655L13.5432 12.5659C12.6967 12.9567 12.2729 13.1503 11.9911 12.9371C11.7094 12.724 11.7571 12.2425 11.8502 11.2809L11.8747 11.0322C11.9004 10.7591 11.9139 10.6231 11.8747 10.4957C11.8355 10.3683 11.7473 10.2666 11.5722 10.062L11.4129 9.87583C10.7967 9.15553 10.488 8.79538 10.5958 8.44871C10.7036 8.10326 11.1556 8.00158 12.0597 7.79701L12.2925 7.74311C12.5497 7.68553 12.6783 7.65736 12.7824 7.57773C12.8853 7.49933 12.9515 7.38173 13.0838 7.14408L13.2039 6.92848Z" stroke="black" stroke-width="2.5"/>
<path d="M21.5999 26.5003H6.8999" stroke="black" stroke-width="2.5" stroke-linecap="round"/>
</svg>
