<svg width="10" height="10" viewBox="0 0 10 10" fill="none" xmlns="http://www.w3.org/2000/svg">
<path d="M6.17686 4.89149L6.07079 4.99756L6.17686 5.10363L9.39027 8.31704C9.53259 8.45936 9.61255 8.65239 9.61255 8.85366C9.61255 9.05493 9.53259 9.24795 9.39027 9.39027C9.24795 9.53259 9.05493 9.61255 8.85366 9.61255C8.65239 9.61255 8.45936 9.53259 8.31704 9.39027L5.10362 6.17686L4.99756 6.07079L4.89149 6.17686L1.67808 9.39027C1.53576 9.53259 1.34273 9.61255 1.14146 9.61255C0.940192 9.61255 0.747165 9.53259 0.604846 9.39027C0.462526 9.24795 0.382572 9.05493 0.382572 8.85366C0.382572 8.65238 0.462526 8.45936 0.604846 8.31704L3.81826 5.10363L3.92433 4.99756L3.81826 4.89149L0.604845 1.67808C0.462526 1.53576 0.382571 1.34273 0.382571 1.14146C0.382571 0.940191 0.462526 0.747165 0.604845 0.604845C0.747165 0.462526 0.940191 0.382572 1.14146 0.382571C1.34273 0.382571 1.53576 0.462526 1.67808 0.604846L4.89149 3.81826L4.99756 3.92433L5.10362 3.81826L8.31704 0.604846C8.45936 0.462526 8.65239 0.382571 8.85366 0.382571C9.05493 0.382571 9.24795 0.462526 9.39027 0.604846C9.53259 0.747165 9.61255 0.940192 9.61255 1.14146C9.61255 1.34273 9.53259 1.53576 9.39027 1.67808L6.17686 4.89149Z" fill="#888888" stroke="#EBEBEB" stroke-width="0.3"/>
</svg>
