<svg width="15" height="16" viewBox="0 0 15 16" fill="none" xmlns="http://www.w3.org/2000/svg">
<path d="M12.5008 8.53064L6.74629 14.0537C6.11502 14.6596 5.25884 15 4.3661 15C3.47335 15 2.61717 14.6596 1.98591 14.0537C1.35464 13.4479 1 12.6261 1 11.7693C1 10.9124 1.35464 10.0907 1.98591 9.48478L10.1692 1.63053C10.3777 1.43056 10.6251 1.27196 10.8974 1.16377C11.1697 1.05558 11.4616 0.999933 11.7563 1C12.051 1.00007 12.3428 1.05585 12.6151 1.16416C12.8873 1.27247 13.1347 1.43119 13.343 1.63125C13.5514 1.83131 13.7167 2.06881 13.8294 2.33017C13.9421 2.59153 14.0001 2.87164 14 3.15451C13.9999 3.43737 13.9418 3.71746 13.829 3.97877C13.7161 4.24008 13.5507 4.47749 13.3423 4.67746L5.15301 12.5375C4.94056 12.7329 4.6566 12.8398 4.36232 12.8362C4.06804 12.8326 3.787 12.7182 3.57978 12.5176C3.37256 12.317 3.25575 12.0463 3.25452 11.7639C3.25329 11.4814 3.36774 11.2098 3.5732 11.0075L9.41521 5.40043M5.15974 12.5303L5.15226 12.5375" stroke="#444444" stroke-width="1.5" stroke-linecap="round" stroke-linejoin="round"/>
</svg>
