<svg width="60" height="60" viewBox="0 0 60 60" fill="none" xmlns="http://www.w3.org/2000/svg">
<circle cx="30" cy="30" r="30" fill="#1B3DEA"/>
<path d="M32.4397 32.1397H32.1397V32.4397V42.3298C32.1397 42.7748 31.9629 43.2016 31.6482 43.5163C31.3335 43.831 30.9067 44.0078 30.4616 44.0078C30.0166 44.0078 29.5898 43.831 29.2751 43.5163C28.9604 43.2016 28.7836 42.7748 28.7836 42.3298V32.4397V32.1397H28.4836H18.5935C18.1485 32.1397 17.7217 31.9629 17.407 31.6482C17.0923 31.3335 16.9155 30.9067 16.9155 30.4616C16.9155 30.0166 17.0923 29.5898 17.407 29.2751C17.7217 28.9604 18.1485 28.7836 18.5935 28.7836H28.4836H28.7836V28.4836V18.5935C28.7836 18.1485 28.9604 17.7216 29.2751 17.407C29.5898 17.0923 30.0166 16.9155 30.4616 16.9155C30.9067 16.9155 31.3335 17.0923 31.6482 17.407C31.9629 17.7216 32.1397 18.1485 32.1397 18.5935V28.4836V28.7836H32.4397H42.3298C42.7748 28.7836 43.2016 28.9604 43.5163 29.2751C43.831 29.5898 44.0078 30.0166 44.0078 30.4616C44.0078 30.9067 43.831 31.3335 43.5163 31.6482C43.2016 31.9629 42.7748 32.1397 42.3298 32.1397H32.4397Z" fill="white" stroke="#1B3DEA" stroke-width="0.6"/>
</svg>
