<svg width="32" height="32" viewBox="0 0 32 32" fill="none" xmlns="http://www.w3.org/2000/svg">
<path d="M21.066 20.667C22.293 19.985 22.134 17.357 20.712 14.793C20.102 13.689 19.352 12.795 18.602 12.17C17.7051 12.8355 16.6188 13.1965 15.502 13.2C14.3835 13.1975 13.2952 12.8365 12.397 12.17C11.647 12.795 10.899 13.69 10.287 14.793C8.86399 17.356 8.70699 19.985 9.93699 20.667C10.485 20.979 11.063 20.745 11.659 20.171C11.5474 20.7894 11.4915 21.4166 11.492 22.045C11.492 24.983 12.632 27.357 14.035 27.357C14.881 27.357 15.3 26.492 15.501 25.169C15.701 26.483 16.121 27.357 16.961 27.357C18.358 27.357 19.507 24.982 19.507 22.045C19.507 21.385 19.445 20.755 19.339 20.172C19.939 20.747 20.515 20.985 21.065 20.669L21.066 20.667ZM15.5 12.2C16.0674 12.2085 16.6307 12.104 17.1574 11.8927C17.684 11.6814 18.1633 11.3675 18.5674 10.9692C18.9716 10.5709 19.2925 10.0962 19.5115 9.57268C19.7304 9.0492 19.8431 8.4874 19.8429 7.91997C19.8427 7.35254 19.7296 6.79082 19.5103 6.26749C19.291 5.74417 18.9697 5.26969 18.5653 4.87168C18.1609 4.47366 17.6813 4.16006 17.1546 3.94912C16.6278 3.73819 16.0643 3.63412 15.497 3.64299C14.3736 3.66056 13.3022 4.11926 12.5141 4.92004C11.726 5.72082 11.2845 6.79944 11.2849 7.92297C11.2853 9.04651 11.7275 10.1248 12.5162 10.925C13.3048 11.7253 14.3766 12.1832 15.5 12.2ZM24.094 14.914C25.0078 14.8873 25.8752 14.5055 26.5121 13.8497C27.149 13.1939 27.5053 12.3157 27.5053 11.4015C27.5053 10.4873 27.149 9.60909 26.5121 8.95329C25.8752 8.29748 25.0078 7.9157 24.094 7.88899C23.1621 7.88913 22.2685 8.25943 21.6097 8.91843C20.9509 9.57743 20.5809 10.4712 20.581 11.403C20.5811 12.3348 20.9514 13.2285 21.6104 13.8873C22.2694 14.5461 23.1631 14.9161 24.095 14.916L24.094 14.914ZM28.374 17.044C27.872 16.136 27.258 15.402 26.642 14.889C25.9051 15.4349 25.013 15.731 24.096 15.734C23.34 15.734 22.636 15.527 22.02 15.184C22.516 16.277 22.823 17.384 22.88 18.374C22.974 19.89 22.5 21.014 21.552 21.539C21.3489 21.6509 21.128 21.7267 20.899 21.763C20.842 22.155 20.803 22.563 20.803 22.993C20.803 25.406 21.738 27.355 22.891 27.355C23.585 27.355 23.931 26.645 24.095 25.559C24.258 26.639 24.603 27.355 25.295 27.355C26.44 27.355 27.385 25.405 27.385 22.995C27.385 22.452 27.332 21.935 27.245 21.455C27.737 21.928 28.211 22.123 28.663 21.863C29.67 21.303 29.54 19.145 28.373 17.043L28.374 17.044ZM6.90599 14.914C7.60051 14.9136 8.27932 14.7073 8.8566 14.3211C9.43388 13.935 9.88372 13.3864 10.1492 12.7446C10.4147 12.1028 10.484 11.3967 10.3483 10.7156C10.2125 10.0345 9.87788 9.40889 9.38664 8.91793C8.8954 8.42697 8.26961 8.09268 7.58841 7.95733C6.9072 7.82198 6.20116 7.89165 5.55954 8.15752C4.91792 8.42339 4.36954 8.87354 3.98373 9.45104C3.59791 10.0285 3.39199 10.7075 3.39199 11.402C3.39225 12.3339 3.76256 13.2275 4.4215 13.8865C5.08045 14.5454 5.9741 14.9157 6.90599 14.916V14.914ZM9.44099 21.536C7.84899 20.651 7.70298 18.012 8.98498 15.182C8.35135 15.5418 7.63566 15.7323 6.90699 15.735C5.95099 15.735 5.07499 15.415 4.35699 14.889C3.74199 15.401 3.12899 16.135 2.62499 17.042C1.45799 19.146 1.32999 21.304 2.33799 21.862C2.78799 22.12 3.26299 21.927 3.75199 21.456C3.66301 21.9638 3.61785 22.4784 3.61699 22.994C3.61699 25.406 4.55199 27.354 5.70499 27.354C6.39898 27.354 6.74499 26.644 6.90899 25.559C7.07399 26.639 7.41899 27.355 8.10899 27.355C9.25599 27.355 10.199 25.405 10.199 22.995C10.199 22.562 10.159 22.153 10.102 21.761C9.87045 21.7249 9.64705 21.6484 9.44199 21.535L9.44099 21.536Z" fill="black"/>
</svg>
