<svg width="220" height="220" viewBox="0 0 220 220" fill="none" xmlns="http://www.w3.org/2000/svg">
<path d="M110 10C54.77 10 10 54.77 10 110C10 165.23 54.77 210 110 210C165.23 210 210 165.23 210 110C210 54.77 165.23 10 110 10Z" stroke="white" stroke-width="20" stroke-linecap="round" stroke-linejoin="round"/>
<path d="M32.7102 173.46C32.7102 173.46 55.0002 145 110 145C165 145 187.3 173.46 187.3 173.46M110 110C117.957 110 125.587 106.839 131.213 101.213C136.84 95.587 140 87.9564 140 79.9999C140 72.0434 136.84 64.4128 131.213 58.7867C125.587 53.1606 117.957 49.9999 110 49.9999C102.044 49.9999 94.4131 53.1606 88.787 58.7867C83.1609 64.4128 80.0002 72.0434 80.0002 79.9999C80.0002 87.9564 83.1609 95.587 88.787 101.213C94.4131 106.839 102.044 110 110 110Z" stroke="white" stroke-width="20" stroke-linecap="round" stroke-linejoin="round"/>
</svg>
