<svg width="6" height="6" viewBox="0 0 6 6" fill="none" xmlns="http://www.w3.org/2000/svg">
<path d="M1.52658 1.04485L1.52659 1.04484L1.52596 1.04424C1.46264 0.983086 1.37784 0.949248 1.28982 0.950013C1.2018 0.950778 1.11759 0.986084 1.05535 1.04833C0.993106 1.11057 0.957799 1.19477 0.957035 1.2828C0.95627 1.37082 0.990108 1.45562 1.05126 1.51894L1.05126 1.51894L1.05187 1.51956L2.5288 2.99649L1.05217 4.47312C1.02025 4.50403 0.994791 4.54096 0.977256 4.58178C0.959661 4.62274 0.9504 4.66679 0.950013 4.71137C0.949625 4.75594 0.958119 4.80015 0.974999 4.84141C0.991879 4.88267 1.01681 4.92015 1.04833 4.95167C1.07985 4.98319 1.11733 5.00812 1.15859 5.025C1.19985 5.04188 1.24406 5.05037 1.28863 5.04999C1.33321 5.0496 1.37726 5.04034 1.41822 5.02274C1.45904 5.00521 1.49597 4.97974 1.52688 4.94783L3.00351 3.4712L4.48044 4.94813L4.48044 4.94814L4.48106 4.94874C4.54438 5.00989 4.62918 5.04373 4.7172 5.04297C4.80523 5.0422 4.88943 5.00689 4.95167 4.94465C5.01392 4.88241 5.04922 4.7982 5.04999 4.71018C5.05075 4.62216 5.01691 4.53736 4.95576 4.47404L4.95577 4.47403L4.95515 4.47342L3.47822 2.99649L4.95515 1.51956L4.95516 1.51956L4.95576 1.51894C5.01691 1.45562 5.05075 1.37082 5.04999 1.2828C5.04922 1.19477 5.01392 1.11057 4.95167 1.04833C4.88943 0.986084 4.80523 0.950778 4.7172 0.950013C4.62918 0.949248 4.54438 0.983086 4.48106 1.04424L4.48106 1.04423L4.48044 1.04485L3.00351 2.52178L1.52658 1.04485Z" fill="white" stroke="white" stroke-width="0.1"/>
</svg>
